<svg width="320" height="320" viewBox="0 0 320 320" fill="none" xmlns="http://www.w3.org/2000/svg">
<rect width="320" height="320" fill="white"/>
<path d="M103.82 146.643C98.3225 145.485 83.6962 141.452 69.174 134.584C51.0212 125.998 31.9164 113.569 33.1288 94.7852C34.3413 76.0013 52.6898 71.1461 55.3572 55.7847C58.0247 40.4232 52.4737 34.4316 50.0646 32.3558C47.6554 30.2801 44.5233 29.3314 46.6314 25.2393C48.7394 21.1471 55.9066 16.5211 59.6408 20.554C63.3751 24.5868 74.6379 35.5586 75.963 52.9356C77.288 70.3125 70.8544 75.3375 67.3702 82.1993C63.8859 89.0611 61.3971 95.923 75.3342 102.785C86.4838 108.274 95.5761 109.973 98.7285 110.137C106.693 107.196 112.666 98.8637 117.145 92.9822C121.896 86.724 128.013 80.6043 140.098 83.0305C152.183 85.4567 158.049 83.9098 167.553 82.1993C177.057 80.4888 195.36 77.4849 204.746 87.1897C214.133 96.8944 209.909 107.292 202.4 119.192C194.891 131.092 199.114 141.374 185.27 150.039C171.425 158.704 166.262 160.322 159.457 157.896C152.652 155.469 146.903 151.195 142.444 145.418" stroke="#26213D" stroke-width="4" stroke-linecap="round" stroke-linejoin="round"/>
<path d="M115.327 143.125C110.939 149.954 105.136 163.333 83.4816 169.326C66.1577 174.12 51.6363 165.563 46.541 160.685C48.2394 164.495 55.4011 173.2 70.4604 177.549C89.2845 182.984 112.213 171.695 123.677 153.159" stroke="#26213D" stroke-width="4" stroke-linecap="round" stroke-linejoin="round"/>
<path d="M122.656 156.974C125.912 159.467 130.061 164.147 137.03 166.026C135.647 169.729 131.603 178.85 126.483 185.701C120.083 194.265 104.166 214.463 97.7658 226.097C91.366 237.731 79.5509 263.1 78.2381 266.17C76.9253 269.24 81.6842 271.018 86.7713 273.765C91.8583 276.512 96.9452 280.39 99.5708 277.643C102.196 274.896 116.801 248.719 120.739 243.064C123.89 238.539 140.65 222.004 148.636 214.302C152.465 218.503 165.669 227.261 187.855 228.683C210.041 230.105 220.182 226.905 222.48 225.128C225.598 234.176 232.129 253.664 233.31 259.222C234.787 266.17 242.992 285.722 244.633 287.984C246.274 290.246 252.838 289.762 256.284 289.762C259.73 289.762 263.832 289.277 263.997 286.692C264.161 284.106 259.074 254.213 258.745 246.457C258.417 238.701 256.284 202.991 256.284 189.741C256.284 176.491 258.089 159.201 247.094 147.729C236.1 136.256 206.891 133.186 197.865 133.186" stroke="#26213D" stroke-width="4" stroke-linecap="round" stroke-linejoin="round"/>
<path d="M244.15 144.751C253.872 141.712 260.816 128.796 263.285 116.791C265.755 104.787 264.829 94.1501 255.878 86.4005C246.928 78.6508 243.996 81.386 235.2 73.6364C228.163 67.4366 231.342 57.4785 233.811 53.2744C238.595 55.0472 248.749 59.8996 251.094 65.1268C254.026 71.6608 254.489 78.3468 254.644 83.8171" stroke="#26213D" stroke-width="4" stroke-linecap="round" stroke-linejoin="round"/>
<path d="M137.439 226.521C138.15 233.987 139.657 250.124 139.998 254.939C140.425 260.959 141.42 269.919 141.846 273.838C142.273 277.758 141.165 287.623 147.865 289.137C154.565 290.651 162.474 290.327 165.769 289.137C169.064 287.948 168.845 280.858 168.405 277.348C167.966 273.838 167.526 259.934 166.648 253.661C165.945 248.643 165.769 232.174 165.769 224.566" stroke="#26213D" stroke-width="4" stroke-linecap="round" stroke-linejoin="round"/>
<path d="M148.509 214.629L154.036 208.245" stroke="#26213D" stroke-width="4" stroke-linecap="round" stroke-linejoin="round"/>
<path d="M222.443 225.335L220.538 221.935L211.133 216.074" stroke="#26213D" stroke-width="4" stroke-linecap="round" stroke-linejoin="round"/>
<path d="M200.848 229.415C200.848 232.404 197.813 249.738 195.298 258.448C192.783 267.158 190.268 279.198 189.227 283.383C188.187 287.567 191.569 288.933 199.027 289.104C206.484 289.275 211.861 289.104 213.422 285.859C214.983 282.614 218.625 269.891 220.62 262.205C222.215 256.057 225.274 242.85 226.603 237.015" stroke="#26213D" stroke-width="4" stroke-linecap="round" stroke-linejoin="round"/>
<path d="M123.589 116.328C126.011 113.77 130.127 108.444 132.064 109.788C134.002 111.133 128.314 116.445 126.428 118.33C124.27 120.486 121.877 120.71 120.577 119.787" stroke="#26213D" stroke-width="4" stroke-linecap="round" stroke-linejoin="round"/>
</svg>
