<svg xmlns="http://www.w3.org/2000/svg" width="320" height="320" fill="none"><path fill="#fff" d="M0 0h320v320H0z"/><path stroke="#26213D" stroke-linecap="round" stroke-linejoin="round" stroke-width="4" d="m104 147-35-12c-18-9-37-21-36-40s20-24 22-39c3-16-3-22-5-24s-5-3-3-7 9-8 13-4c3 4 16 14 17 32 1 17-7 22-10 28-4 7-5 14 8 22 11 6 21 7 24 7 8-3 14-11 18-17 5-6 10-13 22-10 6 1 13 2 18 1 6 0 17-8 24-9 12-1 16 1 24 12 8 12 5 20-3 32-7 12-6 24-15 32s-19 9-28 7c-9-3-14-8-17-13"/><path stroke="#26213D" stroke-linecap="round" stroke-linejoin="round" stroke-width="4" d="M115 143c-4 7-10 20-32 26-17 5-31-3-36-8 1 3 8 12 23 17 19 5 44-7 59-30"/><path stroke="#26213D" stroke-linecap="round" stroke-linejoin="round" stroke-width="4" d="M123 157c3 2 7 7 14 9-1 4-5 13-11 20l-27 32-22 31c-1 3-2 8 5 13 4 4 9 5 12 2 4-2 18-21 22-26 3-5 19-19 27-26 3 4 23 15 45 17 22 1 32-2 34-4 4 9 10 29 11 34 2 7 10 27 12 29 1 2 8 2 11 2 4 0 8-1 8-3l-5-41-3-56c0-14 2-31-9-42-11-12-40-15-49-15"/><path stroke="#26213D" stroke-linecap="round" stroke-linejoin="round" stroke-width="4" d="M244 145c10-3 17-16 19-28 3-12 2-23-7-31-9-7-12-5-21-12-7-7-4-17-1-21 4 8 9 1 17 12 4 6 6 12 4 19M137 218l4 37c0 6 2 28 7 31 3 2 6 2 9 2 4 0 7-1 9-3 4-6 0-25 0-31v-30M143 212l5-7M222 225l-1-3-10-6M124 116c2-2 6-8 8-6 2 1-4 6-6 8s-4 3-5 2M208 229c-2 13-7 37-8 50 0 6 1 8 7 9 5 1 11 0 14-3s7-25 9-36"/></svg>