<svg width="136" height="136" viewBox="0 0 136 136" fill="none" xmlns="http://www.w3.org/2000/svg">
<path d="M49.5563 116.677C49.5563 116.677 50.0241 107.773 49.5563 102.099C49.0885 96.425 47.0173 87.1254 47.0173 87.1254C43.2201 89.2591 36.0103 88.5748 34.1872 82.5538C32.364 76.5328 35.4647 73.2029 38.4748 71.6064C40.2277 70.6767 42.7184 70.0556 45.8201 71.2871" stroke="#26213D" stroke-width="4" stroke-linecap="round" stroke-linejoin="round"/>
<path d="M77.851 116.677C76.8517 114.203 76.4766 109.432 76.851 106.696" stroke="#26213D" stroke-width="4" stroke-linecap="round" stroke-linejoin="round"/>
<path d="M68.8315 105.275C68.8315 105.275 82.0756 106.335 88.7284 105.275C95.3813 104.216 100.106 102.698 103.956 98.7357C107.807 94.7738 109.78 92.0129 110.309 85.6565C110.838 79.3001 108.544 69.4886 108.544 69.4886" stroke="#26213D" stroke-width="4" stroke-linecap="round" stroke-linejoin="round"/>
<path d="M65.4375 68C64.9466 66.1679 66.1878 64.2435 68.2098 63.7017C70.2318 63.16 72.2689 64.2059 72.7598 66.038" stroke="#26213D" stroke-width="4" stroke-linecap="round" stroke-linejoin="round"/>
<path d="M92.836 65.8686C92.9599 63.976 94.7537 62.5525 96.8425 62.6892C98.9313 62.826 100.524 64.4711 100.4 66.3637" stroke="#26213D" stroke-width="4" stroke-linecap="round" stroke-linejoin="round"/>
<path d="M89.5524 82.1078C89.9403 85.2244 87.4664 88.098 84.0267 88.5261C80.5869 88.9543 77.484 86.7749 77.0961 83.6582" stroke="#26213D" stroke-width="4" stroke-linecap="round" stroke-linejoin="round"/>
<path d="M83.6118 74.8342C83.6118 74.8342 85.7495 74.9739 86.49 73.7451C87.2304 72.5164 84.9788 64.7979 84.9788 64.7979" stroke="#26213D" stroke-width="4" stroke-linecap="round" stroke-linejoin="round"/>
<path d="M62.0265 55.8239C64.1505 51.4019 69.1203 49.3773 73.127 51.3018" stroke="#26213D" stroke-width="4" stroke-linecap="round" stroke-linejoin="round"/>
<path d="M88.259 50.2869C92.6222 48.0447 97.8062 49.4318 99.8379 53.3851" stroke="#26213D" stroke-width="4" stroke-linecap="round" stroke-linejoin="round"/>
<path d="M115.988 20.0053C125.043 27.0148 123.581 34.8032 121.148 39.0868C126.309 41.6664 129.828 44.8355 130.016 53.4445C130.165 60.3317 124.9 65.235 122.249 66.8258C125.43 74.2183 124.682 80.3008 120.377 84.5117C116.934 87.8804 113.328 88.2859 111.955 88.0676C112.236 82.1723 110.645 76.5577 108.306 69.9138C105.967 63.2699 107.464 45.9584 103.253 41.9346C99.9876 38.8145 92.8173 36.1571 81.113 35.4037C77.7231 35.1855 74.0215 33.3902 69.8394 33.9366C62.4252 34.9053 59.0696 39.4312 55.5825 41.9346C50.3113 45.7187 49.0315 50.755 50.2455 55.5283C51.8591 61.8732 48.0812 68.694 45.9905 71.3113C40.5386 68.3906 38.8836 70.4351 35.1841 73.2584C31.4846 76.0816 32.1661 82.6044 34.6 87.0827C36.5471 90.6654 42.6155 90.3928 45.4064 89.8087L46.7693 98.0838C39.9545 100.81 32.7503 98.2786 28.8547 91.9505C25.7382 86.888 27.5561 81.4037 28.8547 79.2944C24.7982 78.2235 16.7048 73.7451 16.7827 64.3991C16.8605 55.053 21.4889 50.6396 23.7934 49.6011C18.6336 40.9366 18.4373 35.1926 23.2077 27.5989C27.024 21.524 34.2742 21.498 37.4223 22.2444C37.3248 18.9019 39.3496 11.4965 48.2284 8.61475C57.1071 5.73305 64.2597 8.58229 66.7261 10.3671C68.6406 7.25177 75.176 1.64414 86.0018 4.13643C96.8277 6.62871 99.5995 14.3263 99.6321 17.8635C102.066 16.2409 108.745 14.3977 115.988 20.0053Z" fill="#26213D" stroke="#26213D" stroke-width="4" stroke-linecap="round" stroke-linejoin="round"/>
<path d="M45.5645 38.5191C47.7061 40.5346 52.6183 40.6605 57.6562 40.5345C63.3535 39.9698 65.4584 38.767 69.2673 34.5571" stroke="#26213D" stroke-width="4" stroke-linecap="round" stroke-linejoin="round"/>
<path d="M66.6777 27.4745C67.4318 32.8425 69.5995 36.0443 77.6035 37.7395C85.6075 39.4347 90.222 37.6454 94.2716 34.1609" stroke="#26213D" stroke-width="4" stroke-linecap="round" stroke-linejoin="round"/>
<path d="M91.4512 37.5801C92.675 40.0907 98.0193 42.9232 103.619 40.7988" stroke="#26213D" stroke-width="4" stroke-linecap="round" stroke-linejoin="round"/>
</svg>
