<svg width="136" height="136" viewBox="0 0 136 136" fill="none" xmlns="http://www.w3.org/2000/svg">
<path d="M49.5563 116.677C49.5563 116.677 50.0241 107.773 49.5563 102.099C49.0885 96.425 47.0173 87.1254 47.0173 87.1254C43.2201 89.2591 36.0103 88.5748 34.1872 82.5538C32.364 76.5328 35.4647 73.2029 38.4748 71.6064C40.2277 70.6767 42.7184 70.0556 45.8201 71.2871" stroke="#26213D" stroke-width="4" stroke-linecap="round" stroke-linejoin="round"/>
<path d="M77.851 116.677C76.8517 114.203 76.4766 109.432 76.851 106.696" stroke="#26213D" stroke-width="4" stroke-linecap="round" stroke-linejoin="round"/>
<path d="M68.8315 105.275C68.8315 105.275 82.0756 106.335 88.7284 105.275C95.3813 104.216 100.106 102.698 103.956 98.7357C107.807 94.7738 109.78 92.0129 110.309 85.6565C110.838 79.3001 108.544 69.4886 108.544 69.4886" stroke="#26213D" stroke-width="4" stroke-linecap="round" stroke-linejoin="round"/>
<path d="M65.4375 68C64.9466 66.1679 66.1878 64.2435 68.2098 63.7017C70.2318 63.16 72.2689 64.2059 72.7598 66.038" stroke="#26213D" stroke-width="4" stroke-linecap="round" stroke-linejoin="round"/>
<path d="M92.836 65.8686C92.9599 63.976 94.7537 62.5525 96.8425 62.6892C98.9313 62.826 100.524 64.4711 100.4 66.3637" stroke="#26213D" stroke-width="4" stroke-linecap="round" stroke-linejoin="round"/>
<path d="M79.5698 86.8514C79.8917 91.2055 83.2031 96.297 88.7434 94.9962C94.0324 93.7543 91.5997 87.0895 90.9111 85.8845" stroke="#26213D" stroke-width="4" stroke-linecap="round" stroke-linejoin="round"/>
<path d="M76.4525 86.5832C79.0633 86.8212 89.6039 86.1385 92.6848 85.4546" stroke="#26213D" stroke-width="4" stroke-linecap="round" stroke-linejoin="round"/>
<path d="M85.6033 86.7345C85.7352 87.0519 86.0097 87.7261 86.0525 87.8842" stroke="#26213D" stroke-width="4" stroke-linecap="round" stroke-linejoin="round"/>
<path d="M83.6118 74.8342C83.6118 74.8342 85.7495 74.9739 86.49 73.7451C87.2304 72.5164 84.9788 64.7979 84.9788 64.7979" stroke="#26213D" stroke-width="4" stroke-linecap="round" stroke-linejoin="round"/>
<path d="M60.9669 60.8334C63.9711 58.4489 68.1088 56.9732 72.8768 56.8155" stroke="#26213D" stroke-width="4" stroke-linecap="round" stroke-linejoin="round"/>
<path d="M88.7139 55.9699C92.5112 55.4297 96.8276 56.2464 101.022 58.5189" stroke="#26213D" stroke-width="4" stroke-linecap="round" stroke-linejoin="round"/>
<path d="M108.441 69.396C107.42 65 106.537 58.0137 106.094 53.1317" stroke="#26213D" stroke-width="4" stroke-linecap="round" stroke-linejoin="round"/>
<path d="M117.135 55.421C116.307 27.0838 101.413 22.6536 83.3327 18.8248C66.7212 15.3071 50.9473 17.8992 40.9384 27.0838C30.9296 36.2684 25.3388 44.152 24.0378 59.1382C23.4774 64.1073 22.3566 75.6505 22.3566 82.0712C22.3566 90.0972 21.5977 107.823 21.5977 117.041M117.135 56.2491C118.129 66.8487 118.129 82.2513 118.294 93.5133C118.427 102.523 118.76 111.23 118.704 115.319" stroke="#26213D" stroke-width="4" stroke-linecap="round" stroke-linejoin="round"/>
<path d="M30.5772 106.984C30.3858 110.241 30.4975 115.046 30.5772 117.041" stroke="#26213D" stroke-width="4" stroke-linecap="round" stroke-linejoin="round"/>
<path d="M39.6428 110.87C39.4514 112.869 39.563 115.817 39.6428 117.041" stroke="#26213D" stroke-width="4" stroke-linecap="round" stroke-linejoin="round"/>
<path d="M40.1076 61.3384C44.4011 60.9163 61.7874 57.8711 75.793 32.9304" stroke="#26213D" stroke-width="4" stroke-linecap="round" stroke-linejoin="round"/>
<path d="M81.8263 32.0901C85.3985 38.7863 95.9638 45.4553 106.094 45.4553" stroke="#26213D" stroke-width="4" stroke-linecap="round" stroke-linejoin="round"/>
<path d="M109.089 110.362C109.089 111.389 109.114 113.555 109.365 115.095" stroke="#26213D" stroke-width="4" stroke-linecap="round" stroke-linejoin="round"/>
<path d="M100.757 112.655C100.757 113.184 100.764 114.301 100.833 115.095" stroke="#26213D" stroke-width="4" stroke-linecap="round" stroke-linejoin="round"/>
</svg>
