<svg width="136" height="136" viewBox="0 0 136 136" fill="none" xmlns="http://www.w3.org/2000/svg">
<path d="M49.5563 116.677C49.5563 116.677 50.0241 107.773 49.5563 102.099C49.0885 96.425 47.0173 87.1254 47.0173 87.1254C43.2201 89.2591 36.0103 88.5748 34.1872 82.5538C32.364 76.5328 35.4647 73.2029 38.4748 71.6064C40.2277 70.6767 42.7184 70.0556 45.8201 71.2871" stroke="#26213D" stroke-width="4" stroke-linecap="round" stroke-linejoin="round"/>
<path d="M77.851 116.677C76.8517 114.203 76.4766 109.432 76.851 106.696" stroke="#26213D" stroke-width="4" stroke-linecap="round" stroke-linejoin="round"/>
<path d="M68.8315 105.275C68.8315 105.275 82.0756 106.335 88.7284 105.275C95.3813 104.216 100.106 102.698 103.956 98.7357C107.807 94.7738 109.78 92.0129 110.309 85.6565C110.838 79.3001 108.544 69.4886 108.544 69.4886" stroke="#26213D" stroke-width="4" stroke-linecap="round" stroke-linejoin="round"/>
<path d="M72.5736 68.7037C72.6258 70.5997 70.9718 72.1834 68.8793 72.241C66.7868 72.2986 65.0482 70.8084 64.996 68.9124" stroke="#26213D" stroke-width="4" stroke-linecap="round" stroke-linejoin="round"/>
<path d="M100.371 67.4329C100.544 69.3217 98.9947 71.0076 96.9102 71.1985C94.8256 71.3894 92.9955 70.013 92.8225 68.1242" stroke="#26213D" stroke-width="4" stroke-linecap="round" stroke-linejoin="round"/>
<circle cx="86.1637" cy="87.7046" r="3.97229" fill="#26213D"/>
<path d="M81.5586 76.8309C81.5586 76.8309 85.1836 77.0677 86.4392 74.9841C87.6949 72.9004 83.8767 59.8116 83.8767 59.8116" stroke="#26213D" stroke-width="4" stroke-linecap="round" stroke-linejoin="round"/>
<path d="M103.766 46.675C88.6469 53.8447 58.2535 52.7537 50.1485 51.5068C49.6364 62.2716 47.3454 68.1495 46.2639 69.7429C44.4637 69.7429 40.172 70.0395 37.4068 71.2258C33.9504 72.7087 32.6543 75.5463 32.4383 80.9469C32.2222 86.3476 38.9188 88.9399 40.8633 89.588C42.8077 90.236 45.1838 89.588 46.2639 90.8841C47.128 91.921 48.4962 106.266 49.0722 113.309C40.5029 113.683 22.8458 114.206 20.772 113.309C18.1797 112.187 21.8536 89.588 22.0696 67.1213C22.2857 44.6547 30.7804 28.9983 39.4128 23.4832C45.5357 19.5713 55.5931 19.0705 60.4896 20.0787C60.9937 19.6466 68.7037 15.4605 81.9751 16.1696C97.6812 17.0088 112.366 25.7559 117.224 37.151C123.817 52.6173 123.385 96.9328 123.817 101.037C124.575 108.244 129.333 113.309 118.543 113.309C112.494 113.309 79.0562 113.494 78.8251 113.309C78.6403 113.161 78.1319 109.242 77.9008 107.301C78.0539 107.458 80.2926 107.742 88.0234 107.618C97.687 107.462 107.506 100.136 110.624 93.1224C113.741 86.1086 109.221 74.8864 108.442 69.7429C107.818 65.6281 105.065 52.6498 103.766 46.675Z" fill="#26213D" stroke="#26213D" stroke-width="4" stroke-linecap="round" stroke-linejoin="round"/>
<path d="M44.6276 29.0816C42.5018 29.6013 39.6796 32.8698 38.229 35.9385" stroke="white" stroke-width="4" stroke-linecap="round" stroke-linejoin="round"/>
<path d="M53.1177 31.9791C51.6577 32.4957 48.5087 34.2837 47.5923 37.3025" stroke="white" stroke-width="4" stroke-linecap="round" stroke-linejoin="round"/>
<path d="M40.8571 82.5108C39.3063 82.1557 34.1318 83.4748 34.1318 88.9006C34.1318 94.3264 40.8008 95.2904 41.9222 93.8891" stroke="#FFD633" stroke-width="4" stroke-linecap="round" stroke-linejoin="round"/>
</svg>
