<svg width="136" height="137" viewBox="0 0 136 137" fill="none" xmlns="http://www.w3.org/2000/svg">
<path d="M49.5563 116.749C49.5563 116.749 50.0241 107.845 49.5563 102.171C49.0885 96.4974 47.0173 87.1977 47.0173 87.1977C43.2201 89.3314 36.0103 88.6471 34.1872 82.6261C32.364 76.6051 35.4647 73.2752 38.4748 71.6787C40.2277 70.7491 42.7184 70.1279 45.8201 71.3594" stroke="#26213D" stroke-width="4" stroke-linecap="round" stroke-linejoin="round"/>
<path d="M77.851 116.749C76.8517 114.275 76.4766 109.505 76.851 106.768" stroke="#26213D" stroke-width="4" stroke-linecap="round" stroke-linejoin="round"/>
<path d="M68.8315 105.348C68.8315 105.348 82.0756 106.407 88.7284 105.348C95.3813 104.288 100.106 102.77 103.956 98.808C107.807 94.8462 109.78 92.0852 110.309 85.7288C110.838 79.3724 108.544 69.5609 108.544 69.5609" stroke="#26213D" stroke-width="4" stroke-linecap="round" stroke-linejoin="round"/>
<path d="M72.9128 69.9014C72.9128 69.9014 71.5755 69.7974 70.6277 69.9015C69.6798 70.0055 68.0587 70.4344 68.0587 70.4344" stroke="#26213D" stroke-width="4" stroke-linecap="round" stroke-linejoin="round"/>
<path d="M95.498 64.98L95.498 70.0993" stroke="#26213D" stroke-width="4" stroke-linecap="round" stroke-linejoin="round"/>
<path d="M87.4888 87.4139C82.334 90.18 76.1234 88.636 73.6172 83.9654" stroke="#26213D" stroke-width="4" stroke-linecap="round" stroke-linejoin="round"/>
<path d="M61.906 60.3495C63.6384 60.1111 65.6567 57.3707 67.843 57.6394C70.8206 58.0052 71.6486 61.0036 75.3074 59.0711" stroke="#26213D" stroke-width="4" stroke-linecap="round" stroke-linejoin="round"/>
<path d="M85.1364 50.6029C88.8696 47.4204 94.2336 47.5825 97.1172 50.965" stroke="#26213D" stroke-width="4" stroke-linecap="round" stroke-linejoin="round"/>
<path d="M108.441 69.4684C107.42 65.0723 106.537 58.086 106.093 53.2041C105.519 46.8832 101.3 40.8714 96.6725 37.3241C91.3093 33.2128 82.6104 33.1098 73.2277 33.504C70.7884 33.6065 67.8959 34.0559 64.995 34.9374M111.15 44.6229C111.15 34.1061 101.414 22.7259 83.3332 18.8971C66.7216 15.3794 50.9477 17.9715 40.9389 27.1561C30.93 36.3407 24.4373 44.8425 25.5002 59.3425C25.7707 63.0329 27.6756 67.1587 29.7418 70.5967M39.5564 71.1271C44.0309 70.0673 49.0339 62.2669 50.0825 50.2824C50.448 46.1057 52.3526 42.8451 55.0336 40.3545" stroke="#26213D" stroke-width="4" stroke-linecap="round" stroke-linejoin="round"/>
<path d="M58.1267 18.0462C61.4237 11.9838 54.2827 -0.585016 39.0031 2.47107C23.7234 5.52715 18.8811 25.3848 37.069 30.1709" stroke="#26213D" stroke-width="4" stroke-linecap="round" stroke-linejoin="round"/>
</svg>
