<svg width="136" height="137" viewBox="0 0 136 137" fill="none" xmlns="http://www.w3.org/2000/svg">
<path d="M49.5563 117.162C49.5563 117.162 50.0241 108.257 49.5563 102.584C49.0885 96.9097 47.0173 87.61 47.0173 87.61C43.2201 89.7437 36.0103 89.0594 34.1872 83.0384C32.364 77.0174 35.4647 73.6875 38.4748 72.091C40.2277 71.1614 42.7184 70.5402 45.8201 71.7717" stroke="#26213D" stroke-width="4" stroke-linecap="round" stroke-linejoin="round"/>
<path d="M77.851 117.162C76.8517 114.687 76.4766 109.917 76.851 107.18" stroke="#26213D" stroke-width="4" stroke-linecap="round" stroke-linejoin="round"/>
<path d="M68.8315 105.76C68.8315 105.76 82.0756 106.82 88.7284 105.76C95.3813 104.7 100.106 103.182 103.956 99.2204C107.807 95.2585 109.78 92.4975 110.309 86.1411C110.838 79.7847 108.544 69.9732 108.544 69.9732" stroke="#26213D" stroke-width="4" stroke-linecap="round" stroke-linejoin="round"/>
<path d="M68.6055 67.2646V70.5116" stroke="#26213D" stroke-width="4" stroke-linecap="round" stroke-linejoin="round"/>
<path d="M96.498 67.2646V70.5116" stroke="#26213D" stroke-width="4" stroke-linecap="round" stroke-linejoin="round"/>
<path d="M72.5397 82.8744C74.8275 82.1432 81.4499 83.6201 84.4036 83.179C89.708 82.3869 90.9335 79.8274 93.3667 81.5337C95.7999 83.2399 94.1843 91.3446 84.9391 92.2586C71.3547 93.6017 70.2519 83.6056 72.5397 82.8744Z" fill="#26213D" stroke="#26213D" stroke-width="4" stroke-linecap="round" stroke-linejoin="round"/>
<path d="M77.5109 84.5931V89.5044" stroke="#26213D" stroke-width="4" stroke-linecap="round" stroke-linejoin="round"/>
<path d="M89.2961 83.7027L90.7396 88.3971" stroke="#26213D" stroke-width="4" stroke-linecap="round" stroke-linejoin="round"/>
<path d="M83.9288 84.5931L84.4519 89.8319" stroke="#26213D" stroke-width="4" stroke-linecap="round" stroke-linejoin="round"/>
<path d="M76.5597 86.1507C78.8635 87.0623 82.7019 87.4942 85.4367 87.0144C87.2305 86.6997 89.2273 86.1667 90.3789 85.6229" stroke="white" stroke-width="4" stroke-linecap="round" stroke-linejoin="round"/>
<path d="M83.6118 75.3189C83.6118 75.3189 85.7495 75.4585 86.49 74.2298C87.2304 73.001 84.9788 65.2825 84.9788 65.2825" stroke="#26213D" stroke-width="4" stroke-linecap="round" stroke-linejoin="round"/>
<path d="M61.8663 57.1378C64.3305 56.0826 67.4784 55.5593 70.896 55.7499" stroke="#26213D" stroke-width="4" stroke-linecap="round" stroke-linejoin="round"/>
<path d="M85.1364 51.0152C88.8696 47.8327 94.2336 47.9948 97.1172 51.3773" stroke="#26213D" stroke-width="4" stroke-linecap="round" stroke-linejoin="round"/>
<path d="M108.72 70.621C108.711 70.5802 108.701 70.539 108.692 70.4975C107.673 66.0906 106.232 58.9529 105.792 54.1164C105.218 47.7955 102.375 40.7122 97.7475 37.1649C92.3843 33.0536 88.2002 32.4579 74.1878 33.0467C63.5438 33.4939 52.0902 39.8831 49.9707 50.4808C47.8512 61.0784 43.7299 70.3807 39.2553 71.4405C34.7808 72.5003 31.837 80.154 32.4258 82.3913C33.0145 84.6286 36.9044 88.2846 39.2553 89.1031C41.1361 89.7579 44.6705 90.475 46.2026 90.7516L48.3222 98.8765C46.2053 96.9028 26.5706 101.769 15.5484 112.649C11.3217 116.821 8.66034 112.26 8.05766 111.209C5.37021 106.521 9.81894 77.2449 14.1071 62.6709C19.1489 45.5352 24.6543 35.6442 34.6632 26.4596C44.672 17.275 66.9275 15.2732 87.6517 19.2767C108.376 23.2802 110.612 33.1713 110.849 45.5352C111.083 57.7833 107.724 66.1072 108.692 70.4975C108.701 70.5389 108.711 70.5801 108.72 70.621Z" fill="#26213D" stroke="#26213D" stroke-width="4" stroke-linecap="round" stroke-linejoin="round"/>
<path d="M100.904 25.031C90.1275 15.1059 82.8525 15.8337 75.1959 20.3709C84.932 28.311 105.746 41.3338 107.788 49.5008C110.34 59.7095 112.759 78.8956 110.043 90.5479C108.627 96.6237 106.241 99.699 104.687 105.376C103.338 110.307 103.989 118.106 110.043 118.106C114.645 118.106 120.139 107.677 122.489 94.199C124.629 81.9271 124.029 67.13 120.364 55.3239C114.288 35.7472 111.68 34.9562 100.904 25.031Z" fill="#26213D" stroke="#26213D" stroke-width="4" stroke-linecap="round" stroke-linejoin="round"/>
<path d="M104.699 16.4565C96.3706 12.8227 85.7293 14.9223 77.8948 19.6621C80.3017 20.2805 83.3386 26.4572 87.2193 26.3919C92.0701 26.3103 101.929 27.5669 108.292 31.9526C114.656 36.3383 120.11 56.0625 121.991 61.0628C123.619 65.3885 129.992 67.0872 129.812 56.379C129.701 49.8203 127.715 40.2142 126.556 37.9568C119.106 23.4451 113.027 20.0904 104.699 16.4565Z" fill="#26213D" stroke="#26213D" stroke-width="4" stroke-linecap="round" stroke-linejoin="round"/>
<path d="M77.8945 117.204C77.0885 115.322 76.55 108.512 76.5508 106.541L87.3029 106.541C87.3029 107.407 87.3029 110.215 88.2885 112.903C89.6416 116.593 89.095 119.265 85.4211 120.251C81.5073 121.301 78.7006 119.086 77.8945 117.204Z" fill="#26213D" stroke="#26213D" stroke-width="4" stroke-linecap="round" stroke-linejoin="round"/>
<path d="M91.5399 119.534C88.836 116.577 88.9953 109.14 88.916 106.093C89.9496 106.302 92.6529 106.595 95.1976 106.093C97.7424 105.591 101.506 102.061 103.07 100.358C103.017 101.613 102.943 105.233 103.07 109.677C103.229 115.233 103.944 119.534 100.843 121.685C97.7421 123.835 94.2437 122.491 91.5399 119.534Z" fill="#26213D" stroke="#26213D" stroke-width="4" stroke-linecap="round" stroke-linejoin="round"/>
<path d="M22.2772 117.82C19.3257 116.999 19.2803 113.698 19.867 108.152L34.437 97.4545C34.1056 100.062 32.9608 106.574 31.033 111.761C28.6233 118.244 25.2286 118.642 22.2772 117.82Z" fill="#26213D" stroke="#26213D" stroke-width="4" stroke-linecap="round" stroke-linejoin="round"/>
<path d="M49.5743 116.666C49.9802 113.017 48.8643 103.694 48.2559 98.8301L40.2512 97.006C37.4137 98.222 32.0834 101.85 33.4616 106.633C35.1844 112.612 36.501 116.666 39.2371 120.415C41.9733 124.165 49.1683 120.314 49.5743 116.666Z" fill="#26213D" stroke="#26213D" stroke-width="4" stroke-linecap="round" stroke-linejoin="round"/>
</svg>
